<svg width="708" height="664" viewBox="0 0 708 664" fill="none" xmlns="http://www.w3.org/2000/svg">
<rect x="1" y="275" width="43" height="44" fill="white"/>
<rect x="49" y="275" width="44" height="44" fill="white"/>
<rect x="49" y="232" width="44" height="41" fill="white"/>
<rect x="1" y="232" width="43" height="41" fill="white"/>
<rect x="1" y="185" width="43" height="44" fill="white"/>
<rect x="1" y="139" width="43" height="44" fill="white"/>
<rect x="49" y="133" width="44" height="50" fill="white"/>
<rect x="49" y="94" width="44" height="37" fill="white"/>
<rect x="96" y="94" width="46" height="37" fill="white"/>
<rect x="97" y="133" width="45" height="47" fill="white"/>
<rect x="148" y="94" width="46" height="37" fill="white"/>
<rect x="147" y="132" width="47" height="48" fill="white"/>
<rect x="199" y="132" width="50" height="48" fill="white"/>
<rect x="255" y="133" width="44" height="47" fill="white"/>
<rect x="255" y="94" width="44" height="37" fill="white"/>
<rect x="304" y="94" width="47" height="37" fill="white"/>
<rect x="304" y="133" width="47" height="47" fill="white"/>
<rect x="357" y="94" width="46" height="37" fill="white"/>
<rect x="408" y="94" width="49" height="39" fill="white"/>
<rect x="408" y="135" width="49" height="45" fill="white"/>
<rect x="462" y="94" width="47" height="40" fill="white"/>
<rect x="515" width="46" height="44" fill="white"/>
<rect x="515" y="47" width="46" height="44" fill="white"/>
<rect x="515" y="93" width="46" height="41" fill="white"/>
<rect x="515" y="136" width="46" height="46" fill="white"/>
<rect x="515" y="184" width="45" height="42" fill="white"/>
<rect x="515" y="229" width="45" height="43" fill="white"/>
<rect x="565" y="229" width="46" height="43" fill="white"/>
<rect x="515" y="276" width="45" height="43" fill="white"/>
<rect x="199" y="443" width="46" height="41" fill="white"/>
<rect x="148" y="443" width="47" height="43" fill="white"/>
<rect x="97" y="443" width="45" height="44" fill="white"/>
<rect x="97" y="489" width="45" height="39" fill="white"/>
<rect x="97" y="531" width="45" height="43" fill="white"/>
<rect x="97" y="576" width="45" height="42" fill="white"/>
<rect x="45" y="621" width="47" height="43" fill="white"/>
<rect x="46" y="576" width="46" height="42" fill="white"/>
<rect x="46" y="531" width="46" height="43" fill="white"/>
<rect x="46" y="489" width="47" height="39" fill="white"/>
<rect x="1" y="489" width="41" height="39" fill="white"/>
<rect y="443" width="42" height="44" fill="white"/>
<rect x="46" y="443" width="47" height="44" fill="white"/>
<rect y="620" width="42" height="44" fill="white"/>
<rect y="576" width="42" height="42" fill="white"/>
<rect x="1" y="531" width="41" height="43" fill="white"/>
<rect x="148" y="576" width="48" height="40" fill="white"/>
<rect x="200" y="576" width="47" height="40" fill="white"/>
<rect x="252" y="576" width="47" height="40" fill="white"/>
<rect x="304" y="576" width="46" height="40" fill="white"/>
<rect x="358" y="575" width="45" height="40" fill="white"/>
<rect x="409" y="576" width="48" height="39" fill="white"/>
<rect x="463" y="576" width="45" height="40" fill="white"/>
<rect x="515" y="575" width="46" height="42" fill="white"/>
<rect x="565" y="575" width="47" height="43" fill="white"/>
<rect x="616" y="576" width="43" height="43" fill="white"/>
<rect x="565" y="620" width="47" height="43" fill="white"/>
<rect x="515" y="620" width="46" height="43" fill="white"/>
<rect x="463" y="618" width="45" height="46" fill="white"/>
<rect x="409" y="617" width="48" height="47" fill="white"/>
<rect x="358" y="617" width="45" height="47" fill="white"/>
<rect x="304" y="617" width="46" height="47" fill="white"/>
<rect x="252" y="617" width="47" height="47" fill="white"/>
<rect x="200" y="617" width="47" height="47" fill="white"/>
<rect x="148" y="618" width="48" height="46" fill="white"/>
<rect x="615" y="531" width="45" height="43" fill="white"/>
<rect x="615" y="486" width="45" height="43" fill="white"/>
<rect x="615" y="443" width="45" height="40" fill="white"/>
<rect x="664" y="443" width="43" height="41" fill="white"/>
<rect x="664" y="486" width="43" height="43" fill="white"/>
<rect x="663" y="531" width="45" height="43" fill="white"/>
<rect x="148" y="488" width="47" height="39" fill="white"/>
<rect x="565" y="184" width="45" height="42" fill="white"/>
<rect x="615" y="183" width="45" height="43" fill="white"/>
<rect x="565" y="137" width="45" height="45" fill="white"/>
<rect x="615" y="137" width="45" height="44" fill="white"/>
<rect x="663" y="138" width="45" height="42" fill="white"/>
<rect x="565" y="94" width="45" height="41" fill="white"/>
<rect x="615" y="94" width="45" height="41" fill="white"/>
<rect x="565" y="47" width="45" height="44" fill="white"/>
<rect x="462" y="136" width="47" height="45" fill="white"/>
<rect x="357" y="133" width="46" height="47" fill="white"/>
<rect x="199" y="94" width="50" height="37" fill="white"/>
<rect x="49" y="185" width="44" height="44" fill="white"/>
</svg>
